<svg width="24" height="24" viewBox="0 0 24 24" fill="none" xmlns="http://www.w3.org/2000/svg">
<path d="M11.2727 20.3132C11.1824 20.4087 11.1119 20.521 11.0651 20.6437C11.0183 20.7665 10.9961 20.8972 10.9998 21.0285C11.0035 21.1598 11.0331 21.2891 11.0867 21.409C11.1404 21.5289 11.2172 21.637 11.3127 21.7272C11.4081 21.8175 11.5204 21.888 11.6432 21.9348C11.7659 21.9816 11.8966 22.0038 12.0279 22.0001C12.1592 21.9964 12.2885 21.9668 12.4084 21.9132C12.5283 21.8595 12.6364 21.7827 12.7267 21.6872L21.2267 12.6872C21.4022 12.5016 21.5 12.2558 21.5 12.0002C21.5 11.7447 21.4022 11.4989 21.2267 11.3132L12.7267 2.31224C12.637 2.21468 12.5289 2.13589 12.4086 2.08047C12.2883 2.02505 12.1581 1.99408 12.0257 1.98938C11.8933 1.98468 11.7613 2.00633 11.6374 2.05307C11.5134 2.09982 11.4 2.17073 11.3037 2.26168C11.2073 2.35263 11.1301 2.46182 11.0763 2.5829C11.0225 2.70398 10.9933 2.83453 10.9905 2.96698C10.9876 3.09942 11.011 3.23112 11.0595 3.35443C11.1079 3.47773 11.1804 3.59018 11.2727 3.68524L19.1247 12.0002L11.2727 20.3132Z" fill="#374151"/>
</svg>
