<svg width="66" height="66" viewBox="0 0 66 66" fill="none" xmlns="http://www.w3.org/2000/svg">
<path d="M33.4995 50.0004V14.2504M33.4995 14.2504C33.4995 12.9849 33.7905 11.7363 34.3502 10.6014C34.9099 9.46636 35.7231 8.47533 36.7271 7.70494C37.7311 6.93454 38.8988 6.40543 40.1399 6.15854C41.3811 5.91164 42.6624 5.95358 43.8848 6.28112C45.1072 6.60865 46.2378 7.213 47.1892 8.0474C48.1406 8.88181 48.8874 9.9239 49.3716 11.0931C49.8558 12.2622 50.0646 13.5271 49.9818 14.7899C49.899 16.0527 49.5268 17.2795 48.894 18.3754M33.4995 14.2504C33.4996 12.9849 33.2085 11.7363 32.6488 10.6014C32.0892 9.46636 31.2759 8.47533 30.2719 7.70494C29.268 6.93454 28.1002 6.40543 26.8591 6.15854C25.6179 5.91164 24.3366 5.95358 23.1142 6.28112C21.8919 6.60865 20.7612 7.213 19.8098 8.0474C18.8584 8.88181 18.1117 9.9239 17.6274 11.0931C17.1432 12.2622 16.9344 13.5271 17.0172 14.7899C17.1 16.0527 17.4722 17.2795 18.105 18.3754M41.7495 36.2504C39.3702 35.5548 37.2803 34.1071 35.793 32.124C34.3057 30.1409 33.501 27.7292 33.4995 25.2504C33.498 27.7292 32.6933 30.1409 31.206 32.124C29.7187 34.1071 27.6288 35.5548 25.2495 36.2504" stroke="#2F80ED" stroke-width="4" stroke-linecap="round" stroke-linejoin="round"/>
<path d="M49.9912 14.5942C51.6077 15.0099 53.1083 15.7879 54.3796 16.8693C55.6508 17.9508 56.6593 19.3074 57.3286 20.8363C57.998 22.3653 58.3106 24.0264 58.2429 25.6941C58.1752 27.3617 57.7288 28.9921 56.9377 30.4617" stroke="#2F80ED" stroke-width="4" stroke-linecap="round" stroke-linejoin="round"/>
<path d="M49.9995 50.0006C52.4209 50.0005 54.7746 49.2014 56.6956 47.7274C58.6166 46.2533 59.9975 44.1865 60.6242 41.8477C61.2509 39.5088 61.0884 37.0285 60.1618 34.7914C59.2353 32.5543 57.5964 30.6854 55.4995 29.4746" stroke="#2F80ED" stroke-width="4" stroke-linecap="round" stroke-linejoin="round"/>
<path d="M55.4088 48.5786C55.6015 50.0698 55.4865 51.5846 55.0708 53.0296C54.6552 54.4745 53.9477 55.8189 52.9921 56.9797C52.0365 58.1406 50.8531 59.0932 49.5149 59.7787C48.1767 60.4642 46.7122 60.8682 45.2118 60.9655C43.7114 61.0629 42.207 60.8516 40.7914 60.3448C39.3759 59.838 38.0793 59.0463 36.9817 58.0187C35.8841 56.9911 35.0088 55.7494 34.4099 54.3703C33.8109 52.9912 33.5011 51.5039 33.4995 50.0004C33.4979 51.5039 33.1881 52.9912 32.5892 54.3703C31.9902 55.7494 31.115 56.9911 30.0173 58.0187C28.9197 59.0463 27.6231 59.838 26.2076 60.3448C24.792 60.8516 23.2876 61.0629 21.7872 60.9655C20.2868 60.8682 18.8223 60.4642 17.4841 59.7787C16.1459 59.0932 14.9625 58.1406 14.0069 56.9797C13.0513 55.8189 12.3439 54.4745 11.9282 53.0296C11.5125 51.5846 11.3975 50.0698 11.5903 48.5786" stroke="#2F80ED" stroke-width="4" stroke-linecap="round" stroke-linejoin="round"/>
<path d="M16.9995 50.0006C14.5781 50.0005 12.2244 49.2014 10.3035 47.7274C8.38247 46.2533 7.00154 44.1865 6.37483 41.8477C5.74812 39.5088 5.91065 37.0285 6.83721 34.7914C7.76378 32.5543 9.4026 30.6854 11.4995 29.4746" stroke="#2F80ED" stroke-width="4" stroke-linecap="round" stroke-linejoin="round"/>
<path d="M17.0078 14.5942C15.3914 15.0099 13.8907 15.7879 12.6194 16.8693C11.3482 17.9508 10.3397 19.3074 9.67038 20.8363C9.00104 22.3653 8.6884 24.0264 8.75613 25.6941C8.82386 27.3617 9.27019 28.9921 10.0613 30.4617" stroke="#2F80ED" stroke-width="4" stroke-linecap="round" stroke-linejoin="round"/>
</svg>
