<svg width="24" height="24" viewBox="0 0 24 24" fill="none" xmlns="http://www.w3.org/2000/svg">
<path d="M10 18C10.8333 18 11.5417 17.7083 12.125 17.125C12.7083 16.5417 13 15.8333 13 15V8H15C15.2833 8 15.521 7.904 15.713 7.712C15.905 7.52 16.0007 7.28267 16 7C15.9993 6.71733 15.9033 6.48 15.712 6.288C15.5207 6.096 15.2833 6 15 6H12.5C12.2167 6 11.9793 6.096 11.788 6.288C11.5967 6.48 11.5007 6.71733 11.5 7V12.4C11.2667 12.2667 11.025 12.1667 10.775 12.1C10.525 12.0333 10.2667 12 10 12C9.16667 12 8.45833 12.2917 7.875 12.875C7.29167 13.4583 7 14.1667 7 15C7 15.8333 7.29167 16.5417 7.875 17.125C8.45833 17.7083 9.16667 18 10 18ZM12 22C10.6167 22 9.31667 21.7373 8.1 21.212C6.88334 20.6867 5.825 19.9743 4.925 19.075C4.025 18.1757 3.31267 17.1173 2.788 15.9C2.26333 14.6827 2.00067 13.3827 2 12C1.99933 10.6173 2.262 9.31733 2.788 8.1C3.314 6.88267 4.02633 5.82433 4.925 4.925C5.82367 4.02567 6.882 3.31333 8.1 2.788C9.318 2.26267 10.618 2 12 2C13.382 2 14.682 2.26267 15.9 2.788C17.118 3.31333 18.1763 4.02567 19.075 4.925C19.9737 5.82433 20.6863 6.88267 21.213 8.1C21.7397 9.31733 22.002 10.6173 22 12C21.998 13.3827 21.7353 14.6827 21.212 15.9C20.6887 17.1173 19.9763 18.1757 19.075 19.075C18.1737 19.9743 17.1153 20.687 15.9 21.213C14.6847 21.739 13.3847 22.0013 12 22ZM12 20C14.2333 20 16.125 19.225 17.675 17.675C19.225 16.125 20 14.2333 20 12C20 9.76667 19.225 7.875 17.675 6.325C16.125 4.775 14.2333 4 12 4C9.76667 4 7.875 4.775 6.325 6.325C4.775 7.875 4 9.76667 4 12C4 14.2333 4.775 16.125 6.325 17.675C7.875 19.225 9.76667 20 12 20Z" fill="#374151"/>
</svg>
