<svg width="30" height="30" viewBox="0 0 30 30" fill="none" xmlns="http://www.w3.org/2000/svg">
<path d="M7.5 26.7188C9.82995 26.7188 11.7188 24.83 11.7188 22.5C11.7188 20.17 9.82995 18.2812 7.5 18.2812C5.17005 18.2812 3.28125 20.17 3.28125 22.5C3.28125 24.83 5.17005 26.7188 7.5 26.7188Z" stroke="#2F80ED" stroke-width="1.5" stroke-linecap="round" stroke-linejoin="round"/>
<path d="M22.5 24.8438C24.83 24.8438 26.7188 22.955 26.7188 20.625C26.7188 18.295 24.83 16.4062 22.5 16.4062C20.17 16.4062 18.2812 18.295 18.2812 20.625C18.2812 22.955 20.17 24.8438 22.5 24.8438Z" stroke="#2F80ED" stroke-width="1.5" stroke-linecap="round" stroke-linejoin="round"/>
<path d="M11.7188 22.5V5.15625L26.7188 3.28125V20.625" stroke="#2F80ED" stroke-width="1.5" stroke-linecap="round" stroke-linejoin="round"/>
</svg>
