<svg width="321" height="320" viewBox="0 0 321 320" fill="none" xmlns="http://www.w3.org/2000/svg">
<g clip-path="url(#clip0_67_7)">
<path d="M160.969 0C72.6037 0 0.96875 71.6362 0.96875 160C0.96875 248.37 72.605 320 160.969 320C249.34 320 320.969 248.37 320.969 160C320.969 71.6425 249.34 0.00875 160.966 0.00875L160.967 0.00125L160.969 0ZM234.342 230.768C231.476 235.467 225.324 236.957 220.624 234.072C183.057 211.126 135.768 205.929 80.0738 218.654C77.4947 219.241 74.7882 218.779 72.5492 217.371C70.3102 215.963 68.722 213.724 68.1338 211.145C67.8406 209.868 67.8022 208.547 68.0206 207.255C68.2391 205.964 68.7101 204.728 69.4068 203.619C70.1034 202.509 71.012 201.549 72.0805 200.791C73.149 200.033 74.3565 199.494 75.6338 199.204C136.584 185.279 188.862 191.274 231.037 217.049C235.737 219.934 237.228 226.068 234.342 230.768ZM253.926 187.201C250.314 193.07 242.634 194.924 236.769 191.312C193.761 164.878 128.202 157.221 77.3337 172.663C70.7363 174.655 63.7687 170.938 61.7663 164.351C59.7788 157.754 63.4987 150.799 70.085 148.794C128.191 131.161 200.429 139.703 249.819 170.053C255.684 173.665 257.538 181.344 253.926 187.201ZM255.607 141.835C204.04 111.205 118.961 108.387 69.7275 123.333C61.8213 125.73 53.46 121.266 51.065 113.36C48.6688 105.45 53.1275 97.095 61.04 94.6912C117.556 77.5337 211.511 80.85 270.88 116.095C278.008 120.315 280.337 129.5 276.115 136.601C271.913 143.714 262.702 146.058 255.615 141.835H255.607Z" fill="white"/>
</g>
<defs>
<clipPath id="clip0_67_7">
<rect width="320" height="320" fill="white" transform="translate(0.96875)"/>
</clipPath>
</defs>
</svg>
